<svg version="1.0" xmlns="http://www.w3.org/2000/svg"
 width="480.000000pt" height="480.000000pt" viewBox="0 0 480.000000 480.000000"
 preserveAspectRatio="xMidYMid meet">

  <g transform="translate(0.000000,480.000000) scale(0.100000,-0.100000)"
  fill="#000000" stroke="none">
    <path className="bg-path" d="M0 2400 l0 -2400 2400 0 2400 0 0 2400 0 2400 -2400 0 -2400 0 0
    -2400z m1817 1424 l181 -187 30 21 c16 12 37 33 46 47 21 32 36 32 69 -3 l27
    -28 -78 -77 c-43 -42 -82 -77 -87 -77 -5 0 -93 83 -195 185 l-185 185 -63 -63
    -62 -63 47 -50 c82 -85 77 -84 133 -29 l50 49 30 -29 30 -29 -77 -78 c-43 -43
    -82 -78 -88 -78 -6 0 -64 54 -130 120 l-120 120 125 125 c69 69 127 125 130
    125 3 0 87 -84 187 -186z m377 -1 l187 -186 47 46 c26 26 52 47 57 47 13 0 55
    -41 55 -54 0 -14 -141 -156 -155 -156 -6 0 -93 83 -195 185 l-185 185 -52 -52
    -53 -52 -31 30 -31 31 79 81 c43 45 80 82 83 82 4 0 90 -84 194 -187z m379 0
    l188 -186 47 46 c26 26 53 47 59 47 6 0 21 -14 33 -30 l22 -31 -73 -74 c-41
    -41 -81 -75 -89 -75 -9 0 -96 83 -194 186 l-179 185 -54 -53 -53 -52 -32 32
    -33 32 80 80 c44 44 82 80 85 80 3 0 90 -84 193 -187z m379 0 l188 -188 62 63
    63 62 -65 65 -64 65 -51 -50 -51 -50 -29 30 -29 31 82 82 82 82 120 -120 c66
    -66 120 -124 120 -130 0 -13 -232 -245 -246 -245 -6 0 -92 84 -192 186 l-182
    185 -51 -52 -51 -52 -31 31 -32 32 80 80 c44 44 82 80 85 80 2 0 89 -84 192
    -187z m-2001 32 c175 -153 492 -428 795 -691 159 -139 370 -322 468 -408 99
    -86 183 -156 187 -156 7 0 59 45 609 523 195 170 382 332 414 361 33 28 117
    101 186 161 69 61 155 135 190 165 36 30 85 73 110 95 25 21 55 48 68 59 l22
    19 0 -1596 c0 -1271 -3 -1597 -12 -1597 -7 0 -97 73 -199 163 -102 89 -280
    244 -395 343 -577 501 -855 743 -915 796 -36 32 -71 58 -77 58 -11 0 -132
    -104 -617 -526 -656 -573 -961 -834 -972 -834 -11 0 -13 298 -13 1596 l0 1596
    24 -19 c13 -10 71 -58 127 -108z m866 -2751 l181 -187 30 21 c16 12 37 33 46
    47 21 32 36 32 69 -3 l27 -28 -78 -77 c-43 -42 -82 -77 -87 -77 -5 0 -93 83
    -195 185 l-185 185 -63 -63 -62 -63 47 -50 c82 -85 77 -84 133 -29 l50 49 30
    -29 30 -29 -77 -78 c-43 -43 -82 -78 -88 -78 -6 0 -64 54 -130 120 l-120 120
    125 125 c69 69 127 125 130 125 3 0 87 -84 187 -186z m377 -1 l187 -186 47 46
    c26 26 52 47 57 47 13 0 55 -41 55 -54 0 -14 -141 -156 -155 -156 -6 0 -93 83
    -195 185 l-185 185 -52 -52 -53 -52 -31 30 -31 31 79 81 c43 45 80 82 83 82 4
    0 90 -84 194 -187z m379 0 l188 -186 47 46 c26 26 53 47 59 47 6 0 21 -14 33
    -30 l22 -31 -73 -74 c-41 -41 -81 -75 -89 -75 -9 0 -96 83 -194 186 l-179 185
    -54 -53 -53 -52 -32 32 -33 32 80 80 c44 44 82 80 85 80 3 0 90 -84 193 -187z
    m379 0 l188 -188 62 63 63 62 -65 65 -64 65 -51 -50 -51 -50 -29 30 -29 31 82
    82 82 82 120 -120 c66 -66 120 -124 120 -130 0 -13 -232 -245 -246 -245 -6 0
    -92 84 -192 186 l-182 185 -51 -52 -51 -52 -31 31 -32 32 80 80 c44 44 82 80
    85 80 2 0 89 -84 192 -187z"/>
    <path className="bg-path" d="M1120 2375 c0 -487 3 -885 6 -885 3 0 43 32 88 71 136 120 192 169
    436 380 130 112 295 256 367 319 l133 115 -33 30 c-42 39 -83 74 -183 160
    -163 142 -612 532 -703 612 -52 46 -98 83 -103 83 -4 0 -8 -398 -8 -885z"/>
    <path className="bg-path" d="M3514 3127 c-123 -108 -492 -429 -594 -517 -14 -12 -39 -34 -55 -48
    -17 -15 -69 -61 -117 -102 -78 -66 -104 -99 -80 -100 4 0 25 -17 48 -38 22
    -20 67 -60 100 -88 32 -28 238 -207 457 -398 219 -190 400 -346 403 -346 2 0
    4 398 4 885 0 487 -3 885 -7 885 -5 -1 -76 -60 -159 -133z"/>
  </g>
</svg>
